<svg xmlns="http://www.w3.org/2000/svg" width="97.933" height="70.063" viewBox="0 0 97.933 70.063">
  <g id="Layer_2" data-name="Layer 2" transform="translate(-0.001 -0.006)" opacity="0.1">
    <g id="Layer_1" data-name="Layer 1">
      <path id="Path_103" data-name="Path 103" d="M30,40.25c-7,1.68-12.53,1.61-17.89-1C3.44,35.13-1.27,26.39.3,17.37S10,1,19.33.23C32.59-.88,41.88,6.74,44.12,20.57c3,18.56-7.5,39.33-24.3,47.89-1.66.84-3.59,2.9-5.4.44s.52-3.71,1.92-5.35a151.222,151.222,0,0,0,11.15-14C29,47.22,29.05,44,30,40.25Z" fill="#707070"/>
      <path id="Path_104" data-name="Path 104" d="M83.29,40.56c-3.13.37-5.13.74-7.14.84-11.24.53-20.74-6.72-22.6-17.17-1.78-10,4.28-19.76,14.32-23C78.69-2.31,89.94,2,94.53,11.92c5.68,12.2,3.68,24.25-1.8,35.91C88.24,57.4,81.27,64.74,71.52,69.11c-1.08.49-2.68-.19-4-.32.37-1.45.32-3.24,1.17-4.3,3.74-4.67,8.11-8.87,11.48-13.77C81.93,48.07,82.17,44.35,83.29,40.56Z" fill="#707070"/>
    </g>
  </g>
</svg>
