<svg xmlns="http://www.w3.org/2000/svg" width="30.444" height="35" viewBox="0 0 30.444 35">
  <g id="catelog" transform="translate(-3.286 -2.012)">
    <path id="Path_92" data-name="Path 92" d="M18.308,6.583l.454-.175a76.121,76.121,0,0,0,8.572-3.492,7.857,7.857,0,0,0,1.17-.681.908.908,0,0,1,.978-.14.873.873,0,0,1,.419.873c0,2.514,0,5.028,0,7.525v.454h2.566a1.24,1.24,0,0,1,1.257,1.187,2.828,2.828,0,0,1,0,.384V27.01a4.749,4.749,0,0,1,0,.489.576.576,0,0,1-.594.489.559.559,0,0,1-.663-.506,3.368,3.368,0,0,1,0-.419V12.152H9.77a3.09,3.09,0,0,0,0,.4v22.7c0,.349.1.419.436.419h22.26v-4a2.217,2.217,0,0,1,0-.349.576.576,0,0,1,1.152,0,2.829,2.829,0,0,1,0,.384v3.771c0,1.048-.471,1.519-1.519,1.519H5.545a2.008,2.008,0,0,1-2.235-2.3q0-10.763,0-21.509a2.3,2.3,0,0,1,1.03-2.043L17.155,2.41a.751.751,0,0,1,.786-.087.7.7,0,0,1,.367.733V6.583ZM8.531,12.135H5.58c-.821,0-1.048.332-1.048,1.1V34.692c0,.768.279,1.03,1.03,1.03H8.531Zm20.148-1.2V3.6A165.089,165.089,0,0,1,9.316,10.93ZM17.1,3.824,8.024,9.9h0l.384-.1,3.143-1.03L16.7,7.019a.341.341,0,0,0,.262-.244A19.674,19.674,0,0,0,17.1,3.824Z" fill="#179a9d"/>
    <path id="Path_93" data-name="Path 93" d="M16.4,18.656H10.319c-.822,0-1.189-.367-1.189-1.189V11.314c0-.822.35-1.189,1.154-1.189H22.521a1,1,0,0,1,1.136,1.136v6.294a1.014,1.014,0,0,1-1.136,1.136Zm6.1-7.343H10.266v6.119H22.5Z" transform="translate(4.346 6.037)" fill="#179a9d"/>
    <path id="Path_94" data-name="Path 94" d="M15.151,12.672H11.34c-.262,0-.507,0-.594-.315a.769.769,0,0,1,0-.594.7.7,0,0,1,.49-.262h7.727a.6.6,0,1,1-.017,1.189Z" transform="translate(5.512 7.075)" fill="#179a9d"/>
    <path id="Path_95" data-name="Path 95" d="M15.162,14.084H11.351c-.472,0-.752-.3-.664-.717s.3-.455.7-.455h7.535a.682.682,0,0,1,.664.3.577.577,0,0,1-.542.892H15.162Z" transform="translate(5.501 8.125)" fill="#179a9d"/>
  </g>
</svg>
