<svg id="emoji_events_black_24dp" xmlns="http://www.w3.org/2000/svg" width="35" height="35" viewBox="0 0 35 35">
  <rect id="Rectangle_38" data-name="Rectangle 38" width="35" height="35" fill="none"/>
  <path id="Path_110" data-name="Path 110" d="M28.778,6.222H25.556V3H9.444V6.222H6.222A3.232,3.232,0,0,0,3,9.444v1.611a8.042,8.042,0,0,0,7.073,7.959,8.071,8.071,0,0,0,5.816,4.769v4.994H9.444V32H25.556V28.778H19.111V23.783a8.071,8.071,0,0,0,5.816-4.769A8.042,8.042,0,0,0,32,11.056V9.444A3.232,3.232,0,0,0,28.778,6.222ZM6.222,11.056V9.444H9.444V15.6A4.85,4.85,0,0,1,6.222,11.056ZM17.5,20.722a4.848,4.848,0,0,1-4.833-4.833V6.222h9.667v9.667A4.848,4.848,0,0,1,17.5,20.722Zm11.278-9.667A4.85,4.85,0,0,1,25.556,15.6V9.444h3.222Z" fill="#296d68"/>
</svg>
