<svg xmlns="http://www.w3.org/2000/svg" width="27.052" height="35" viewBox="0 0 27.052 35">
  <g id="fire-resistant" transform="translate(-4.3 -2)">
    <path id="Path_82" data-name="Path 82" d="M31.232,19.486a12.762,12.762,0,0,1-.543,5.8,12.85,12.85,0,0,1-3.4,5.023,7.146,7.146,0,0,1-4.27,2c-.368,0-.735.121-1.12.155a9.691,9.691,0,0,0,6.142-8.631,7.609,7.609,0,0,1-3.272,2.33,6.832,6.832,0,0,0,1.138-7.44,8.46,8.46,0,0,1-2.292,3.211V20.522a9.526,9.526,0,0,0-.438-3.452,8.321,8.321,0,0,0-1.75-2.779,2.121,2.121,0,0,0-.98-.621,3.14,3.14,0,0,0,.14,1.139A8.621,8.621,0,0,1,20.26,18a12.344,12.344,0,0,1-2.24,4.488c-.14.19-.245.224-.455.1A3.645,3.645,0,0,1,16.007,21.3c-.245-.4-.543-.777-.858-1.226a6.186,6.186,0,0,0-.262,4.039A10.976,10.976,0,0,0,16.97,27.7a5.282,5.282,0,0,1-3.5-1.588,6.883,6.883,0,0,1-1.89-3.262s-.122,0-.14.1a4.6,4.6,0,0,0-.665,2.227,9.1,9.1,0,0,0,.49,2.969,5.182,5.182,0,0,0,1.75,2.4c.875.673,1.75,1.295,2.695,1.933l.3.207a15.637,15.637,0,0,1-5.618-1.5,7.191,7.191,0,0,1-2.5-2.555,12.521,12.521,0,0,1-1.75-5.075,6.325,6.325,0,0,0-.21-1.122,3.311,3.311,0,0,0-.753-1.623c-.3-.328-.577-.673-.875-1.036a5.094,5.094,0,0,1,4.585,2.382,5.279,5.279,0,0,0,.928-3.452,22.743,22.743,0,0,0-.6-2.624,5.926,5.926,0,0,0-.665-1.277,6.915,6.915,0,0,0-.56-.725A7.7,7.7,0,0,1,12.787,17l.28-.4a4.913,4.913,0,0,0,.158-4.885,18.147,18.147,0,0,0-1.12-1.726l-.228-.4.963.242a6.642,6.642,0,0,1,4.183,3.539,15.582,15.582,0,0,0,.77,1.364,5.715,5.715,0,0,0,.28-1.295,22.136,22.136,0,0,0,0-2.848A10.89,10.89,0,0,1,19.525,3.83,8.316,8.316,0,0,1,21.275,2a4.642,4.642,0,0,1-.088,1.139,9.431,9.431,0,0,0,1.75,6.611,10.531,10.531,0,0,1,2.188,5.714v.293l.3-.138a2.28,2.28,0,0,0,1.1-1.536c.21-.932.332-1.864.49-2.8A8.9,8.9,0,0,1,29.063,15.9a11.094,11.094,0,0,1-.542,5.179A4.58,4.58,0,0,0,31.232,19.486Z" fill="#179a9d"/>
    <path id="Path_83" data-name="Path 83" d="M28.559,20.34v3.222H5.23V20.34Z" transform="translate(0.875 13.438)" fill="#179a9d"/>
  </g>
</svg>
