<svg xmlns="http://www.w3.org/2000/svg" width="35" height="34.928" viewBox="0 0 35 34.928">
  <g id="high-quality" transform="translate(-2.028 -2.027)">
    <path id="Path_98" data-name="Path 98" d="M29.138,5.262,26.557,7.808A42.871,42.871,0,0,0,21.94,6.316a13.413,13.413,0,1,0,8.5,5.267c-.193-.263-.4-.7-.3-.913.246-.527.492-1.176,1.352-1.036a9.586,9.586,0,0,0,1.422,0,2.072,2.072,0,0,1,1.756,3.072c-.211.421-.492.808-.72,1.229a2.054,2.054,0,0,0,.808,3.037c.369.211.755.4,1.106.632a2.054,2.054,0,0,1,0,3.7c-.386.246-.79.439-1.176.667a2.036,2.036,0,0,0-.772,2.879c.228.439.527.86.755,1.3a2.072,2.072,0,0,1-1.756,3.107h-1.58a2.019,2.019,0,0,0-1.984,1.966v1.58a2.072,2.072,0,0,1-3.16,1.756c-.456-.228-.86-.527-1.3-.755a2.036,2.036,0,0,0-2.827.79c-.263.439-.492.93-.772,1.369a2.054,2.054,0,0,1-3.511,0c-.281-.421-.492-.878-.755-1.317a2.054,2.054,0,0,0-2.932-.808c-.4.228-.808.509-1.229.737a2.072,2.072,0,0,1-3.143-1.756c0-.456,0-.913,0-1.352a2.036,2.036,0,0,0-2.247-2.194H6.122a2.072,2.072,0,0,1-1.756-3.125c.246-.456.562-.9.79-1.369A2.019,2.019,0,0,0,4.4,22.028c-.439-.281-.93-.509-1.369-.79a2.036,2.036,0,0,1,0-3.511c.421-.263.878-.492,1.3-.755a2.036,2.036,0,0,0,.808-2.862c-.246-.439-.527-.86-.772-1.3A2.072,2.072,0,0,1,6.122,9.686h1.44A2.054,2.054,0,0,0,9.721,7.527V6.1a2.072,2.072,0,0,1,3.072-1.756c.421.228.825.492,1.229.72a2.054,2.054,0,0,0,3.037-.825c.246-.4.456-.843.72-1.229a2.054,2.054,0,0,1,3.511,0c.281.439.509.913.772,1.369a2.036,2.036,0,0,0,2.809.79c.4-.211.79-.456,1.176-.685a2.036,2.036,0,0,1,3.09.772Z" fill="#179a9d"/>
    <path id="Path_99" data-name="Path 99" d="M16.406,29.9c-1.275-2.379-2.474-4.814-3.806-7.136a22.835,22.835,0,0,0-5.48-6.108,3.958,3.958,0,0,1,3.577-.209,14.367,14.367,0,0,1,3.045,2.188,29.077,29.077,0,0,1,2.417,2.645c1.161-2.074,2.283-4.167,3.5-6.222A40.189,40.189,0,0,1,26.682,5.77a14.253,14.253,0,0,1,2.721-1.9,4.186,4.186,0,0,1,1.9-.323A111.337,111.337,0,0,0,16.406,29.9Z" transform="translate(1.661 1.362)" fill="#179a9d"/>
    <path id="Path_100" data-name="Path 100" d="M23.773,6.616a3.294,3.294,0,0,1-.734-.154,12.222,12.222,0,1,0-7.613,22.857,11.624,11.624,0,0,0,12.2-5.616,11.745,11.745,0,0,0-.256-13.366,1.827,1.827,0,0,1-.273-.922,12.274,12.274,0,0,1,.273,15.7A12.768,12.768,0,1,1,23.79,6.343Z" transform="translate(2.23 2.277)" fill="#179a9d"/>
  </g>
</svg>
