<svg xmlns="http://www.w3.org/2000/svg" width="35" height="34.797" viewBox="0 0 35 34.797">
  <path id="longetivity" d="M20.452,5.956c1.906.262,3.743.437,5.561.787a18.905,18.905,0,0,1,7.468,2.921,7.223,7.223,0,0,1,3.5,6.716c-.122,2.2,0,4.407,0,6.611a6.418,6.418,0,0,1-2.361,5.247,17.926,17.926,0,0,1-7.975,3.777,2.239,2.239,0,0,1-.56.1,4.669,4.669,0,0,0-4,2.326,15,15,0,0,1-1.556,1.749c-.525.542-.717.769-1.329.577s-.665-.735-.665-1.277V33.5c0-.665-.21-.839-.839-.857a26.442,26.442,0,0,1-8.534-1.749,14.48,14.48,0,0,1-4.949-2.921A6.523,6.523,0,0,1,2,23.043c0-2.361,0-4.739,0-7.1a6.681,6.681,0,0,1,2.536-5.491A16.684,16.684,0,0,1,12.915,6.8,5.561,5.561,0,0,0,16.9,4.435a11.822,11.822,0,0,1,1.749-1.994c.262-.245.839-.49,1.1-.367a1.417,1.417,0,0,1,.665,1.049A25.672,25.672,0,0,1,20.452,5.956ZM3.978,19.685v3.358a4.04,4.04,0,0,0,1.749,3.673,20.986,20.986,0,0,0,4.25,2.466,24.991,24.991,0,0,0,9.216,1.644c1.084,0,1.329.28,1.347,1.382v1.119l5.894-6.733L20.54,21.539v1.417c0,1.277-.28,1.539-1.574,1.5a13.673,13.673,0,0,1-2.4-.14A21.423,21.423,0,0,1,3.978,19.685Zm8.639-7.433,5.911,5.054V15.855c0-1.312.227-1.556,1.521-1.521a24.991,24.991,0,0,1,13.641,3.743,3.725,3.725,0,0,0-.21-5.806,12.8,12.8,0,0,0-5.247-2.9A27.807,27.807,0,0,0,19.7,8.02c-.944,0-1.224-.3-1.242-1.224V5.764h-.192ZM25.944,30.038a1.452,1.452,0,0,0,.437,0,17.331,17.331,0,0,0,5.981-2.5A6.523,6.523,0,0,0,34.9,20a38.157,38.157,0,0,1-4.092,2.361c-1.434.612-2.973,1.067-4.529,1.591l1.749,1.591c.769.665.8,1.1.14,1.871ZM20.452,16.275v1.749a1.574,1.574,0,0,0,.682,1.556c.944.717,1.749,1.539,2.728,2.273a1.207,1.207,0,0,0,.874.245,20.129,20.129,0,0,0,6.541-2.151c.28-.14.525-.332.892-.542a24.169,24.169,0,0,0-11.717-3.13Zm-2.011,6.3c.14-1.469.42-2.886-1.137-3.743a1.556,1.556,0,0,1-.455-.367A4.04,4.04,0,0,0,11.6,17.289a21.266,21.266,0,0,0-4.792,2.169,24.047,24.047,0,0,0,11.63,3.113Zm-5.649-7.59L11.2,13.616c-1.242-1.067-1.259-1.259-.157-2.518l1.941-2.239L12.81,8.6a50.944,50.944,0,0,0-4.932,1.994,10.616,10.616,0,0,0-2.956,2.326,3.5,3.5,0,0,0,.367,5.247,20.986,20.986,0,0,1,7.5-3.183Z" transform="translate(-1.997 -2.041)" fill="#179a9d"/>
</svg>
