<svg xmlns="http://www.w3.org/2000/svg" width="34.986" height="35" viewBox="0 0 34.986 35">
  <g id="maintance" transform="translate(-2.005 -1.992)">
    <path id="Path_96" data-name="Path 96" d="M22.988,18.484a.945.945,0,0,1,.21.157l12.787,12.77a3.324,3.324,0,0,1,1,2.082,3.114,3.114,0,0,1-5.37,2.362L20.574,24.747a1.749,1.749,0,0,1-.262-.315v.525a2.2,2.2,0,0,1-.49,1.015l-.175.157L9.5,36.31a2.082,2.082,0,0,1-2.641.367,2.222,2.222,0,0,1-.437-.367L2.7,32.6a2.1,2.1,0,0,1,0-3.114L12.755,19.5a2.257,2.257,0,0,1,1.749-.717l-.122-.157L11.7,16a.245.245,0,0,0-.315,0,7.085,7.085,0,0,1-9.079-5.545,7,7,0,0,1,.192-3.5.595.595,0,0,1,1.05-.245L6.142,9.318a1.4,1.4,0,0,0,2.169,0L9.536,8.094a1.364,1.364,0,0,0,0-2.064L6.947,3.423c-.455-.455-.332-.927.28-1.1a7,7,0,0,1,9.026,5.545,7.347,7.347,0,0,1-.262,3.376.245.245,0,0,0,0,.28L20.382,15.9a.525.525,0,0,0,.14-.14L28.9,7.394a.4.4,0,0,0,.122-.367l.07-1.522a.63.63,0,0,1,.35-.63l4.986-2.764a.56.56,0,0,1,.77.1L36.772,3.79a.56.56,0,0,1,.1.77c-.927,1.749-1.854,3.324-2.764,5A.6.6,0,0,1,33.5,9.9l-1.644-.1a.437.437,0,0,0-.28,0l-8.5,8.5Zm-3.306-1.749-4.443-4.373a3.131,3.131,0,0,1-.245.315.577.577,0,0,1-.752-.8c.122-.157.28-.28.4-.42a1.312,1.312,0,0,0,.262-.35,5.685,5.685,0,0,0,.122-3.656A5.878,5.878,0,0,0,9.781,3.2H8.521v.122a.822.822,0,0,1,.21.122q.892.875,1.749,1.749a2.536,2.536,0,0,1,0,3.674L8.994,10.228a2.536,2.536,0,0,1-3.656,0L3.588,8.478a.787.787,0,0,1-.1-.21h0a4.758,4.758,0,0,0,0,1.574,5.913,5.913,0,0,0,7.889,4.793.752.752,0,0,1,.875.192l3.394,3.411a1.417,1.417,0,0,1,.175.157,2.2,2.2,0,0,1,1.277-.822,1.749,1.749,0,0,1,1.417.42Zm.892,6.385.192.157L30.772,33.3c.595.595,1.172,1.207,1.749,1.749a1.924,1.924,0,0,0,2.991-.507,1.959,1.959,0,0,0-.28-2.309L22.743,19.726l-.42-.455L21.1,20.5a1.749,1.749,0,0,1,.4,1.4,2.239,2.239,0,0,1-.927,1.294ZM6.789,35.05l.42.42a.945.945,0,0,0,1.487,0L18.755,25.412a.91.91,0,0,0,0-1.469l-3.674-3.674a.927.927,0,0,0-1.5,0L4.55,29.3c-.385.367-.752.735-1.12,1.12a.84.84,0,0,0,0,1.172,6.351,6.351,0,0,0,.595.595l.14-.21q4.268-4.251,8.519-8.519l.245-.227A2.064,2.064,0,1,1,15.676,26.3L7.052,34.858a1.749,1.749,0,0,1-.262.192Zm13.4-15.411.175-.192,10.5-10.5a.98.98,0,0,1,.875-.3h1.539l2.344-4.2a.157.157,0,0,0,0-.227c-.28-.28-.56-.542-.822-.822a.157.157,0,0,0-.227,0L30.388,5.68a.3.3,0,0,0-.1.21,6.214,6.214,0,0,0,.1,1.382.927.927,0,0,1-.315.822l-10.5,10.5-.157.157ZM4.76,32.951l1.277,1.277.122-.1L14.8,25.464l.157-.157a.892.892,0,0,0-.455-1.4.945.945,0,0,0-.98.28L5.67,32.042C5.372,32.356,5.058,32.654,4.76,32.951Zm11.458-13.26,3.114,3.114c.245-.227.49-.49.717-.735a.525.525,0,0,0,0-.875L19,20.146,17.74,18.9a.49.49,0,0,0-.735,0c-.262.192-.525.595-.787.787Z" transform="translate(0 0)" fill="#179a9d"/>
    <path id="Path_97" data-name="Path 97" d="M19.69,20.512a.922.922,0,1,1,.922.922A.922.922,0,0,1,19.69,20.512Z" transform="translate(13.276 13.211)" fill="#179a9d"/>
  </g>
</svg>
