<svg xmlns="http://www.w3.org/2000/svg" width="25.035" height="35" viewBox="0 0 25.035 35">
  <path id="multypoint" d="M4.88,26.977V20.4a1.084,1.084,0,0,1,.8-1.242c1.749-.63,1.749-.665,1.749-2.553A61.077,61.077,0,0,1,7.591,10.4,9.864,9.864,0,0,1,18.277,2.019a9.987,9.987,0,0,1,9.077,9.689q0,3.017,0,6.034a.909.909,0,0,0,.752,1.067c1.749.542,1.749.595,1.749,2.466V33.623a1.014,1.014,0,0,1-.77,1.154,32.478,32.478,0,0,1-23.488,0,.962.962,0,0,1-.752-1.084C4.9,31.471,4.88,29.215,4.88,26.977ZM24.87,17.882c0-2.151.1-4.25,0-6.331a7.468,7.468,0,0,0-6.629-7,7.188,7.188,0,0,0-8.08,5.684,52.468,52.468,0,0,0-.437,7.678,34.577,34.577,0,0,1,15.146-.035ZM14.9,31.874h4.95c-.28-1.627-.56-3.183-.77-4.74a2.046,2.046,0,0,1,.332-1.259,2.484,2.484,0,1,0-4.075,0,2.029,2.029,0,0,1,.315,1.259c-.192,1.609-.49,3.166-.752,4.792Z" transform="translate(-4.834 -1.975)" fill="#179a9d"/>
</svg>
