<svg xmlns="http://www.w3.org/2000/svg" width="35" height="33.062" viewBox="0 0 35 33.062">
  <g id="strength" transform="translate(-2.003 -2.509)">
    <path id="Path_84" data-name="Path 84" d="M14.062,4.506a2.154,2.154,0,0,1,2-.252A2.379,2.379,0,0,1,17.474,5.8a2.052,2.052,0,0,1,2.433-.123,2.494,2.494,0,0,1,1.077,2.38l.408-.175a2.015,2.015,0,0,1,2.039.161,2.337,2.337,0,0,1,.982,1.922c0,1.593.082,3.185,0,4.76a15.051,15.051,0,0,1-.653,3.133c-.718,2.52-1.518,5.023-2.237,7.561a5.319,5.319,0,0,0-.245,1.75c.147,2.38.343,4.76.555,7.141.114,1.208.131,1.26-1.012,1.26H9.426c-.637,0-.9-.088-.816-.928.147-1.855.261-3.728.327-5.583a11.652,11.652,0,0,0-1.273-5.705,12.9,12.9,0,0,1-.473-11.1A4.921,4.921,0,0,1,9.311,9.721.711.711,0,0,0,9.687,9c0-1.313,0-2.608,0-3.92a2.324,2.324,0,0,1,1.792-2.538,2.19,2.19,0,0,1,2.5,1.715Zm2.547,8.313c-.751.263-1.4.473-2.024.753a1.038,1.038,0,0,0-.615.687,1.131,1.131,0,0,0,.142.94,18.779,18.779,0,0,1,1.926,4.6,6.4,6.4,0,0,1,.18,2.94.412.412,0,0,1-.522.438c-.31-.07-.392-.315-.327-.63a5.108,5.108,0,0,0-.131-2.328,17.773,17.773,0,0,0-1.975-4.6,1.592,1.592,0,0,1-.229-1.155,2.144,2.144,0,0,1,1.437-1.75c.816-.3,1.633-.578,2.449-.893a1.065,1.065,0,0,0-.31-2.03,3.442,3.442,0,0,0-.424,0c-1.535.123-3.086.21-4.62.35A4.049,4.049,0,0,0,7.956,12.8a11.935,11.935,0,0,0,.49,10.221A10.3,10.3,0,0,1,9.687,27.17c.1,1.54,0,3.08,0,4.638,0,.945-.1,1.89-.147,2.87H20.968a.956.956,0,0,0,0-.3c-.147-1.593-.327-3.168-.441-4.76a13.592,13.592,0,0,1,0-3.9c.114-.473.131-.963.637-1.243a.685.685,0,0,0,.289-.448.722.722,0,0,0-.109-.532,1.682,1.682,0,0,1-.114-.438h.114l.375.455a.442.442,0,0,0-.082-.315.887.887,0,0,1-.114-1c.441-1.365.849-2.748,1.273-4.113l.114-.508a2.312,2.312,0,0,1-2.318-.875,5.673,5.673,0,0,1-.8.613,2.014,2.014,0,0,1-2.076-.069,2.327,2.327,0,0,1-1.042-1.926A24.764,24.764,0,0,1,16.609,12.819Zm3.445-1.348h0V7.691a1.4,1.4,0,0,0-.362-1,1.214,1.214,0,0,0-.928-.4,1.339,1.339,0,0,0-1.29,1.383,6.321,6.321,0,0,0,0,.963.972.972,0,0,0,.245.525,2.1,2.1,0,0,1,0,3.15.881.881,0,0,0-.261.56c0,.753,0,1.488,0,2.24a1.293,1.293,0,1,0,2.579,0C20.07,13.869,20.053,12.7,20.053,11.472Zm.9,1.173h0v2.7a1.3,1.3,0,0,0,1.241,1.3c.751,0,1.061-.193,1.208-1.033a1.594,1.594,0,0,0,0-.4V9.949a1.317,1.317,0,0,0-1.333-1.177,1.337,1.337,0,0,0-1.23,1.3,22.431,22.431,0,0,1,.114,2.573Zm-10.383-3.5a18.8,18.8,0,0,0,2.335-.21c.082,0,.229-.175.229-.263V4.751a1.313,1.313,0,0,0-1.257-1.243,1.29,1.29,0,0,0-1.306,1.225c-.033,1.488,0,2.94,0,4.445ZM14.062,8.9a10.851,10.851,0,0,0,2.286-.158.309.309,0,0,0,.245-.228,23.412,23.412,0,0,0,0-2.4,1.254,1.254,0,0,0-2.465,0C14.062,6.991,14.062,7.919,14.062,8.9Z" transform="translate(3.741)" fill="#179a9d"/>
    <path id="Path_85" data-name="Path 85" d="M8.4,7.53a6.156,6.156,0,0,0-.608.323,1.235,1.235,0,0,1-1.9-.722.836.836,0,0,0-.4-.475,1.216,1.216,0,0,1,0-2.128.817.817,0,0,0,.342-.456,1.254,1.254,0,0,1,1.9-.7,1.1,1.1,0,0,0,.646.228A1.235,1.235,0,0,1,9.6,5.307a.893.893,0,0,0,0,.627,1.14,1.14,0,0,1-1.2,1.6Zm.513-.874a2.907,2.907,0,0,0-.285-.532.57.57,0,0,1,0-.95,1.007,1.007,0,0,0,.076-.418,1.216,1.216,0,0,0-.456,0A.57.57,0,0,1,7.4,4.49c0-.133-.266-.209-.4-.323,0,.19-.152.361-.133.532a.475.475,0,0,1-.437.627,4.883,4.883,0,0,0-.684.285,2.66,2.66,0,0,0,.513.266c.456,0,.665.3.589.779a.59.59,0,0,0,.133.437c.133.152.285-.152.361-.285a.589.589,0,0,1,.893-.285,2.261,2.261,0,0,0,.684.133Z" transform="translate(2.58 0.586)" fill="#179a9d"/>
    <path id="Path_86" data-name="Path 86" d="M18.488,7.223a1.14,1.14,0,0,1-1.254-1.615.893.893,0,0,0,0-.589A1.235,1.235,0,0,1,18.469,3.29a.988.988,0,0,0,.589-.152,1.235,1.235,0,0,1,1.995.646,1.026,1.026,0,0,0,.38.513,1.216,1.216,0,0,1,0,2.128.836.836,0,0,0-.361.513,1.235,1.235,0,0,1-1.995.684,3.458,3.458,0,0,0-.589-.4Zm2.6-1.9c-.228-.171-.4-.285-.4-.285a.57.57,0,0,1-.551-.7,1.159,1.159,0,0,0-.152-.475,1.273,1.273,0,0,0-.38.323.513.513,0,0,1-.8.266H18.3a4.751,4.751,0,0,0,.171.475,3.173,3.173,0,0,0,.3.456,2.3,2.3,0,0,0-.266.38,1.623,1.623,0,0,1-.209.513,1.748,1.748,0,0,0,.551,0,.494.494,0,0,1,.76.266.494.494,0,0,0,.133.19s.19.152.247.133.19-.171.171-.247c-.133-.665.209-.931.779-1.045-.038-.114,0-.19.152-.323Z" transform="translate(10.609 0.304)" fill="#179a9d"/>
    <path id="Path_87" data-name="Path 87" d="M18.9,9.5a5.377,5.377,0,0,1,.494.266l5.472,3.8c.285.209.494.437.266.8s-.57.247-.855,0l-5.491-3.895c-.247-.19-.456-.38-.323-.7S18.745,9.633,18.9,9.5Z" transform="translate(11.777 5.071)" fill="#179a9d"/>
    <path id="Path_88" data-name="Path 88" d="M8.894,9.4a6.555,6.555,0,0,1-.475.513l-5.434,3.8c-.3.209-.608.342-.874,0s0-.627.3-.836l3.572-2.489c.646-.475,1.292-.95,1.9-1.368a.779.779,0,0,1,.589,0C8.666,9.036,8.742,9.207,8.894,9.4Z" transform="translate(0 4.684)" fill="#179a9d"/>
    <path id="Path_89" data-name="Path 89" d="M22.138,7.211a1.216,1.216,0,0,1-.3.361c-.779.475-1.558.912-2.356,1.368a.475.475,0,0,1-.722-.171.494.494,0,0,1,.228-.722c.779-.456,1.558-.912,2.356-1.349C21.739,6.489,22.119,6.7,22.138,7.211Z" transform="translate(12.012 3.038)" fill="#179a9d"/>
    <path id="Path_90" data-name="Path 90" d="M4.306,6.58a4.826,4.826,0,0,1,.494.209L6.966,8.043c.323.171.513.418.3.76s-.494.3-.817.114c-.741-.437-1.52-.855-2.242-1.311A.741.741,0,0,1,4,7C4,6.865,4.173,6.732,4.306,6.58Z" transform="translate(1.795 3.009)" fill="#179a9d"/>
    <path id="Path_91" data-name="Path 91" d="M15.415,14.54c.3.437.228.722-.285.95Z" transform="translate(9.823 8.976)" fill="#179a9d"/>
  </g>
</svg>
