<svg xmlns="http://www.w3.org/2000/svg" width="25.817" height="35" viewBox="0 0 25.817 35">
  <g id="value-money" transform="translate(-4.63 -2)">
    <path id="Path_66" data-name="Path 66" d="M19.575,2l1.505.315h0l-1.05.28c-.21,0-.263.14-.245.35A13.493,13.493,0,0,0,19.872,4.4a2.572,2.572,0,0,1-1.278-1.54,5.775,5.775,0,0,0-2.5.892c-.543.332-1.033.717-1.575,1.085a.262.262,0,0,0,0,.4,2.187,2.187,0,0,1,.158.437,1.575,1.575,0,0,1-.332,1.75,9.345,9.345,0,0,1,.613.84c.612.98,1.207,1.96,1.75,2.94l.175.245v.123c.438.927.858,1.855,1.278,2.8.227.525.438,1.085.648,1.627a.893.893,0,0,0,.63-.56,16.923,16.923,0,0,0,.945-4.463,47.53,47.53,0,0,0,0-7.4V3.032a6.178,6.178,0,0,1,2.188-.367,8.12,8.12,0,0,1,5.46,2.363c.613.542,1.155,1.155,1.75,1.75a22.75,22.75,0,0,0-4.707,7h.682A2.187,2.187,0,0,1,27.765,16a17.236,17.236,0,0,1-.14,1.75h0a3.255,3.255,0,0,1,1.628,3.85.822.822,0,0,0,.192.84,3.2,3.2,0,0,1,.56,2.905,1.47,1.47,0,0,1-.123.42,1.173,1.173,0,0,0,.1,1.313,2.712,2.712,0,0,1-.1,3.167,3.5,3.5,0,0,1-1.908,1.173c-1.4.35-2.8.665-4.2.962l-8.522,1.75c-.542.1-1.05.28-1.61.42l.245.84L9.162,37,4.63,23l4.708-1.523.385,1.12A3.937,3.937,0,0,0,10.528,22a18.112,18.112,0,0,0,1.1-1.872c.438-.91.788-1.855,1.243-2.765A7.14,7.14,0,0,1,16.915,13.5,26.425,26.425,0,0,0,14.85,9.63a18.778,18.778,0,0,0-2.818-3.5,23.584,23.584,0,0,1,1.75-1.75,8.943,8.943,0,0,1,3.71-2.118c.367-.1.752-.157,1.12-.245Zm-6.4,31.01h.35c.787-.21,1.575-.437,2.38-.6l9.467-1.75a8.977,8.977,0,0,0,2.818-.893,1.207,1.207,0,0,0,.63-1.487,2.993,2.993,0,0,0-.507-1.033,1,1,0,0,1-.088-1.26,2.2,2.2,0,0,0-.472-3.01.543.543,0,0,1-.175-.647,2.782,2.782,0,0,1,.122-.35c.42-1.137.122-2.747-1.347-2.887-.123,0-.3-.263-.35-.438a2.222,2.222,0,0,1,0-.56,10.36,10.36,0,0,0,.245-1.645,1.015,1.015,0,0,0-1.1-1.1,6.16,6.16,0,0,0-2.59.507c-1.225.525-2.4,1.1-3.588,1.75-.683.332-.962.245-1.173-.473s-.35-1.1-.543-1.75a4.637,4.637,0,0,0-2.012,1.47,12.25,12.25,0,0,0-1.592,2.887c-.315.683-.613,1.348-.963,2.013a5.443,5.443,0,0,1-2.52,2.573Zm11.707-21L27.4,8.02c-.648-.7-.367-1.5,0-2.31-.262-.21-.507-.42-.752-.595A7.21,7.21,0,0,0,23.425,3.7c-.1,0-.315,0-.35.123a2.083,2.083,0,0,1-1.75,1.487V10.26a1.942,1.942,0,0,1,2.31-.3,1.872,1.872,0,0,1,1.242,1.96Zm-3.6-.542-.718,3.658h0a14.543,14.543,0,0,1,3.238-1.137A.333.333,0,0,0,24,13.83c.245-.49.473-.98.752-1.575a2.187,2.187,0,0,1-3.483-.875ZM8.568,24.942,8.113,23.56l-1.365.455L7.185,25.4Z" transform="translate(0 0)" fill="#179a9d"/>
    <path id="Path_67" data-name="Path 67" d="M11.657,8.379V8.26C11.335,6.837,13,5.837,14.2,6.074c.254,0,.407.153.373.458A12.741,12.741,0,0,1,14.4,8.226a.559.559,0,0,1-.22.356A2.118,2.118,0,0,1,12.69,8.9,1.7,1.7,0,0,1,11.657,8.379Z" transform="translate(5.291 3.05)" fill="#179a9d"/>
  </g>
</svg>
