<svg xmlns="http://www.w3.org/2000/svg" width="35" height="30.216" viewBox="0 0 35 30.216">
  <g id="weather-proof" transform="translate(-2 -3.36)">
    <path id="Path_68" data-name="Path 68" d="M11.162,14.062a5.792,5.792,0,0,0,0,3.524c0,.122.223.223.365.365.122-.83.182-1.58.3-2.329A9.236,9.236,0,0,1,15.638,9.91a10.37,10.37,0,0,1,6.785-2.349A10.572,10.572,0,0,1,29.552,10.3a25.864,25.864,0,0,1,1.9,2.025A6.582,6.582,0,0,1,32.833,15.8v.385c.689,0,.729-.911.587-2.025h.3a6.076,6.076,0,0,1,4.516,4.415,7.149,7.149,0,0,1-1.7,7.494,5.063,5.063,0,0,1-3.565,1.56c-3.241,0-6.481,0-9.722.1s-6.744,0-10.127,0a7.109,7.109,0,0,1-6.481-3.727,6.906,6.906,0,0,1,3.22-9.641C10.271,14.265,10.7,14.184,11.162,14.062Z" transform="translate(-1.66 1.553)" fill="#179a9d"/>
    <path id="Path_69" data-name="Path 69" d="M6.4,19.855a8.344,8.344,0,0,1-1.58-8.1A8.1,8.1,0,0,1,11.808,5.9a8.3,8.3,0,0,1,7.717,2.957l-1.58.81a13.1,13.1,0,0,0-4.7,4.476,1.2,1.2,0,0,1-.851.547,7.17,7.17,0,0,0-5.752,4.577A4.051,4.051,0,0,1,6.4,19.855Z" transform="translate(2.445 2.503)" fill="#179a9d"/>
    <path id="Path_70" data-name="Path 70" d="M10.136,18.34a8.263,8.263,0,0,1,1.073,3.241c0,.952-.385,1.458-1.094,1.418a1.276,1.276,0,0,1-1.094-1.6,12.618,12.618,0,0,1,.486-1.722C9.67,19.312,9.893,18.907,10.136,18.34Z" transform="translate(5.111 10.576)" fill="#179a9d"/>
    <path id="Path_71" data-name="Path 71" d="M19.728,18.42a7.413,7.413,0,0,1,1.013,3.342,1.033,1.033,0,0,1-.952,1.154.972.972,0,0,1-1.134-.911,2.471,2.471,0,0,1,0-1.154c.243-.83.567-1.641.851-2.451Z" transform="translate(11.465 10.637)" fill="#179a9d"/>
    <path id="Path_72" data-name="Path 72" d="M14.933,18.35a6.765,6.765,0,0,1,1.033,3.706.972.972,0,0,1-1.094.911,1.073,1.073,0,0,1-1.013-1.073,5.772,5.772,0,0,1,.628-2.613C14.609,19,14.751,18.735,14.933,18.35Z" transform="translate(8.697 10.586)" fill="#179a9d"/>
    <path id="Path_73" data-name="Path 73" d="M2.49,14.073,5.548,11.42l.871,2.025Z" transform="translate(0.502 5.85)" fill="#179a9d"/>
    <path id="Path_74" data-name="Path 74" d="M9.84,6.938,12.027,3.9h.162l-.243,3.808Z" transform="translate(5.735 0.554)" fill="#179a9d"/>
    <path id="Path_75" data-name="Path 75" d="M8.982,3.36l1.235,3.787H8.05Z" transform="translate(4.434 0)" fill="#179a9d"/>
    <path id="Path_76" data-name="Path 76" d="M6.508,7.767,5.9,4.1,6.1,4l2.43,2.9Z" transform="translate(2.844 0.656)" fill="#179a9d"/>
    <path id="Path_77" data-name="Path 77" d="M13.129,8.794,11.61,7.275l3.3-2.025Z" transform="translate(6.957 1.938)" fill="#179a9d"/>
    <path id="Path_78" data-name="Path 78" d="M5.6,9.888,2.44,7.68h0l3.828.263Z" transform="translate(0.451 3.153)" fill="#179a9d"/>
    <path id="Path_79" data-name="Path 79" d="M3.981,5.42,7.262,7.1,5.743,8.62,3.88,5.5Z" transform="translate(1.928 2.112)" fill="#179a9d"/>
    <path id="Path_80" data-name="Path 80" d="M4,16.432,5.7,13.07l1.519,1.5L4,16.473Z" transform="translate(2.051 6.979)" fill="#179a9d"/>
    <path id="Path_81" data-name="Path 81" d="M5.625,11.647,2,10.756H2L5.625,9.5Z" transform="translate(0 4.485)" fill="#179a9d"/>
  </g>
</svg>
