<svg id="workspace_premium_black_24dp" xmlns="http://www.w3.org/2000/svg" width="35" height="35" viewBox="0 0 35 35">
  <rect id="Rectangle_39" data-name="Rectangle 39" width="35" height="35" fill="none"/>
  <path id="Path_111" data-name="Path 111" d="M13.585,19.813,17.5,17.131l3.9,2.682L19.913,15.47l3.915-2.8H19.036L17.5,8.385l-1.536,4.282H11.172l3.9,2.8ZM31,14.19C31,7.455,24.959,2,17.5,2S4,7.455,4,14.19a11.486,11.486,0,0,0,3.375,8.046V34L17.5,30.952,27.625,34V22.236A11.486,11.486,0,0,0,31,14.19ZM17.5,5.048c5.586,0,10.125,4.1,10.125,9.143S23.086,23.333,17.5,23.333,7.375,19.234,7.375,14.19,11.914,5.048,17.5,5.048Zm0,22.857-6.75,1.554V24.735a14.666,14.666,0,0,0,13.5,0v4.724Z" fill="#296d68"/>
</svg>
